<?xml version="1.0" encoding="UTF-8" standalone="no"?>
<svg
   width="1107"
   height="648.63287"
   viewBox="0 0 1107 139.0255"
   version="1.1"
   id="svg1"
   xmlns="http://www.w3.org/2000/svg"
   xmlns:svg="http://www.w3.org/2000/svg">
  <defs
     id="defs1" />
  <g
     id="g1"
     transform="matrix(0.26162253,0,0,0.26162253,-0.21687712,-248.99213)">
    <path
       id="mountain-3"
       d="m 4228.65,0 c -22.253,25.34 -248.34,169.11 -282.148,177.58 -33.808,8.47 -143.771,76.085 -270.6,160.71 -126.833,84.555 -270.6,296.012 -380.567,346.759 -109.967,50.747 -287.543,126.832 -372.1,126.832 -84.557,0 -608.893,8.469 -676.579,0 -67.686,-8.469 -735.726,-135.3 -854.158,-169.11 C 1274.066,608.961 952.713,422.915 876.627,397.506 815.941,377.277 233.296,179.469 0,100.234 v 991 H 4228.726 V 0 Z"
       fill="#282a57" />
    <rect
       style="fill:#282a57;fill-opacity:1;stroke:#000000;stroke-opacity:0"
       id="rect1"
       width="4278.7334"
       height="1566.0294"
       x="-13.104849"
       y="1086.192" />
  </g>
</svg>
